<svg id="Layer_1" data-name="Layer 1" xmlns="http://www.w3.org/2000/svg" viewBox="0 0 1500 1500"><defs><style>.cls-1{fill:#308743;}.cls-2{fill:#fff;}.cls-3{fill:#feffff;}</style></defs><title>ngoma communication</title><path class="cls-1" d="M741.26,607.75c4.4.81,8.84,1.41,13.17,2.46,40.78,9.86,71.85,32.28,85.77,72.74,25.46,74-27.37,131.79-83.17,143.84-52.63,11.36-105.53-11.9-130.22-57.37-26.07-48-11.38-107.49,34.35-139.68,18.45-13,38.67-20.4,61.34-20.85a81.8,81.8,0,0,0,9-1.14ZM731.2,820c11.63.95,24.08-1.43,36.27-5.65,47.77-16.53,75.5-61.19,68.85-108.69-7.58-54.1-52.27-84.89-97-88.09-38.86-2.78-71.49,11.05-95.95,42.39-20.48,26.23-24.16,55.94-15.87,86.79C639,789.67,683.38,821.91,731.2,820Z"/><path class="cls-1" d="M742.82,733.22c4.83-6.58,9.39-12.53,13.66-18.68,4.13-5.95,8-12.11,12.38-18.88L743.6,689c0,4.88-.37,9,.08,13a57.68,57.68,0,0,1-4.22,29c-3.36,8.07-3.38,8.07-11.4,4.38,2-6.08,4.7-12,5.66-18.27,1-6.48.59-13.24.2-19.85-.29-5-.29-9.09,6.51-9.39l-26.64-14.74c-1.39,7.14-3.13,13.87-3.91,20.71-.67,5.82-.38,11.77-.24,17.66.08,3.34.16,5.93-4.37,6.26-5,.37-4.5-2.87-4.71-5.89-.89-13,.09-25.82,4-38.38a77.83,77.83,0,0,0,2.35-12.66c.56-4.06,2.6-7.29,6.58-7.36,6.54-.1,13.39-.17,19.58,1.59,10.82,3.08,21.24,7.56,31.7,11.4-1.43,8.5-2.74,9.09-9.83,6.39q-13.56-5.18-27.37-9.64c-2.62-.85-5.59-.59-8.79-.87,5.85,10.23,40.4,24.6,54.74,22.92-.8-1.15-2.08-2.15-2-3a16,16,0,0,1,1.93-6.42c.39-.62,3.3-.47,4.4.29a20.75,20.75,0,0,1,5.26,5.31c4.28,6.24,2.24,11.47-5,13.49-1.87.52-3.75.94-6.85,1.71,5.76,2.14,4.36,5,2.38,7.93-6.87,10.29-13.39,20.86-20.75,30.79C749.79,739.52,746.89,734.52,742.82,733.22Z"/><path class="cls-1" d="M710.29,775.59l-6.7-1.3c.67,7.18,14.33,14.86,24.68,13.53,0-6.46.08-13.06,0-19.66s-2.32-13,.64-19.64a8.76,8.76,0,0,1,7.09,8.31c.93,12.31,1.37,24.65,2,37.74a56.47,56.47,0,0,0-6.08-1c-1.16-.05-3.16.11-3.39.72-1.95,5-5.67,3.17-9.08,2.62-7.79-1.28-13.93-5.38-19.32-11-3.21-3.33-6.77-6.31-10.5-9.75l-3.27,4.06c-4.74-2.74,10.83-36.08,21.56-46.36,6.44,3.3,6.84,5.25,2.82,10.77-4.53,6.23-8.86,12.62-13.15,19-3.64,5.46-3.34,6.1,4.17,8.88,4.14-6.79,8.11-14,12.85-20.65,1.5-2.11,5.08-2.74,8.6-4.5C724.33,760.3,715.56,767,710.29,775.59Z"/><path class="cls-1" d="M718.35,681.32c8.09,1.43,8.28,2.21,7.81,9.63-.58,9.26-.31,18.56-.51,27.85a57,57,0,0,1-.88,10.62c-.37,1.73-2.25,3.13-3.2,4.37-2.05-4.44-5.13-8.17-5.27-12-.42-10.88.29-21.81.72-32.71A58.62,58.62,0,0,1,718.35,681.32Z"/><path class="cls-2" d="M359.44,822.2V709.44q0-66.33-48.17-66.33a55.45,55.45,0,0,0-23.7,5.07,56.74,56.74,0,0,0-18.82,14.05,65.77,65.77,0,0,0-12.43,21.31,77.39,77.39,0,0,0-4.49,26.66v112H227.37V626.49h24.46v34h.77q21.78-38.61,65.55-38.61,32.12,0,48.93,20.83t16.82,60.21V822.2Z"/><path class="cls-2" d="M602.5,807.1q0,54.48-24.75,80.75T501.4,914.13a134,134,0,0,1-60.78-14.33V875q31.92,17.77,60.78,17.78,76.64,0,76.64-81V788.18h-.76q-22.56,38.61-68.81,38.61a80.49,80.49,0,0,1-33.16-6.69,71.48,71.48,0,0,1-25.71-19.3Q438.89,788.19,433,770.12t-5.92-40.81q0-24.07,6.31-43.86a100.88,100.88,0,0,1,18-33.93,80.23,80.23,0,0,1,28.19-21.88q16.53-7.74,37.18-7.74,41.47,0,60.59,33.64H578v-29H602.5ZM578,703.32a61.29,61.29,0,0,0-4.4-23.13,59.77,59.77,0,0,0-12.23-19.11A59,59,0,0,0,542.78,648a57.17,57.17,0,0,0-23.8-4.88A63,63,0,0,0,491.36,649a59.83,59.83,0,0,0-21,16.82A77.77,77.77,0,0,0,457,692.33a121.81,121.81,0,0,0-4.68,35.07,112,112,0,0,0,4.39,32.49,73.49,73.49,0,0,0,12.43,24.66,55.44,55.44,0,0,0,19.4,15.67,56.94,56.94,0,0,0,25.32,5.54,64.45,64.45,0,0,0,26.38-5.25A59.64,59.64,0,0,0,560.46,786a65.58,65.58,0,0,0,13-21.79,77.93,77.93,0,0,0,4.59-27Z"/><path class="cls-2" d="M1120.68,822.27V707.12q0-17.6-2.68-29.74t-8.32-19.79a32.3,32.3,0,0,0-14.34-11.1q-8.71-3.43-20.75-3.44a42.68,42.68,0,0,0-20.28,5.07,53.6,53.6,0,0,0-16.73,14A67.82,67.82,0,0,0,1026.29,683a80.14,80.14,0,0,0-4.11,26V822.27H997.7V704.64q0-61.59-47.25-61.59a43.24,43.24,0,0,0-20.27,4.88,50.54,50.54,0,0,0-16.35,13.67,65.62,65.62,0,0,0-10.91,21.14A89.74,89.74,0,0,0,899,710V822.27H874.52V626.41H899v31.75h.77q20.65-36.35,60.25-36.34A59.47,59.47,0,0,1,979.53,625,56.41,56.41,0,0,1,996,633.77a57.57,57.57,0,0,1,12.53,13.49,60.7,60.7,0,0,1,7.94,17.21q10.34-20.85,26.87-31.75a66.45,66.45,0,0,1,37.4-10.9q64.45,0,64.45,79.57V822.27Z"/><path class="cls-2" d="M1315,822.27V787.46h-.76q-9.57,18.74-26.11,29.07a69.21,69.21,0,0,1-37.39,10.33,76.34,76.34,0,0,1-25.54-4,54.79,54.79,0,0,1-19.32-11.38,50.16,50.16,0,0,1-12.24-17.69,58.6,58.6,0,0,1-4.3-22.76q0-26.58,16.45-42.37t49.73-20.56l59.48-8.61q0-56.41-43.8-56.42-34.23,0-63.5,25.06V641.33a82.28,82.28,0,0,1,13.87-7.94,126.69,126.69,0,0,1,16.35-6.12,135.61,135.61,0,0,1,17.69-4,114.25,114.25,0,0,1,17.7-1.43q32.7,0,49.44,18.36t16.73,54.7V822.27Zm-50.49-95.06A152.71,152.71,0,0,0,1241.9,732a46.17,46.17,0,0,0-15.49,7.75,28.74,28.74,0,0,0-9,12q-2.88,7.17-2.87,17.69a37.53,37.53,0,0,0,2.77,14.53,32.62,32.62,0,0,0,8,11.58,36.47,36.47,0,0,0,12.82,7.55,50.89,50.89,0,0,0,17.12,2.68A56.51,56.51,0,0,0,1298,787.07a63.81,63.81,0,0,0,12.43-21,76.65,76.65,0,0,0,4.49-26.58V720.13Z"/><path class="cls-3" d="M643.89,887l9.28,1.2q-1.53,9.6-7.79,15A22.68,22.68,0,0,1,630,908.67q-11.43,0-18.37-7.47t-7-21.41a38.72,38.72,0,0,1,3-15.77,20.82,20.82,0,0,1,9.1-10.15,27,27,0,0,1,13.28-3.38q9.08,0,14.84,4.59t7.39,13l-9.18,1.42a15.22,15.22,0,0,0-4.64-8.44,12,12,0,0,0-8-2.83,14.63,14.63,0,0,0-11.58,5.11q-4.47,5.11-4.46,16.17,0,11.22,4.3,16.3a14,14,0,0,0,11.22,5.09,13.21,13.21,0,0,0,9.27-3.41Q642.89,894.11,643.89,887Z"/><path class="cls-3" d="M1060.34,887l9.27,1.2q-1.52,9.6-7.78,15a22.7,22.7,0,0,1-15.38,5.42q-11.43,0-18.38-7.47t-6.94-21.41a38.72,38.72,0,0,1,3-15.77,20.85,20.85,0,0,1,9.09-10.15,27,27,0,0,1,13.29-3.38q9.06,0,14.83,4.59t7.39,13l-9.17,1.42a15.22,15.22,0,0,0-4.64-8.44,12,12,0,0,0-8-2.83,14.64,14.64,0,0,0-11.59,5.11q-4.46,5.11-4.45,16.17,0,11.22,4.29,16.3a14,14,0,0,0,11.22,5.09,13.24,13.24,0,0,0,9.28-3.41Q1059.34,894.11,1060.34,887Z"/><path class="cls-3" d="M656.27,879.58q0-15.45,8.6-22.9a25.85,25.85,0,0,1,17.5-6.19q11.49,0,18.77,7.52t7.28,20.79q0,10.74-3.22,16.9a22.83,22.83,0,0,1-9.38,9.57,27.35,27.35,0,0,1-13.45,3.4q-11.68,0-18.89-7.49T656.27,879.58Zm9.7,0q0,10.7,4.66,16a15.53,15.53,0,0,0,23.43,0q4.66-5.34,4.67-16.3,0-10.34-4.69-15.65a15.56,15.56,0,0,0-23.41,0Q666,868.9,666,879.58Z"/><path class="cls-3" d="M1181.19,879.58q0-15.45,8.59-22.9a25.88,25.88,0,0,1,17.51-6.19q11.48,0,18.76,7.52t7.29,20.79q0,10.74-3.23,16.9a22.72,22.72,0,0,1-9.38,9.57,27.31,27.31,0,0,1-13.44,3.4q-11.68,0-18.9-7.49T1181.19,879.58Zm9.69,0q0,10.7,4.67,16a15.53,15.53,0,0,0,23.43,0q4.66-5.34,4.66-16.3,0-10.34-4.69-15.65a15.54,15.54,0,0,0-23.4,0Q1190.89,868.9,1190.88,879.58Z"/><path class="cls-3" d="M715.51,907.42V851.75h8.43v7.81a20,20,0,0,1,7-6.58,19.57,19.57,0,0,1,9.9-2.49A18.29,18.29,0,0,1,751,853.06a13.79,13.79,0,0,1,5.59,7.18q6.6-9.75,17.19-9.75,8.28,0,12.74,4.59t4.45,14.13v38.21h-9.38V872.35a25.86,25.86,0,0,0-.92-8.15,7.86,7.86,0,0,0-3.33-4,10.39,10.39,0,0,0-5.66-1.52,13.2,13.2,0,0,0-9.75,3.9c-2.58,2.61-3.88,6.77-3.88,12.51v32.34h-9.43V871.25q0-6.29-2.31-9.44c-1.53-2.09-4-3.14-7.54-3.14a13.72,13.72,0,0,0-7.37,2.1,11.86,11.86,0,0,0-4.9,6.13q-1.51,4-1.52,11.63v28.89Z"/><path class="cls-3" d="M801.63,907.42V851.75h8.44v7.81a19.92,19.92,0,0,1,7-6.58,19.58,19.58,0,0,1,9.91-2.49,18.33,18.33,0,0,1,10.14,2.57,13.73,13.73,0,0,1,5.58,7.18q6.62-9.75,17.19-9.75,8.28,0,12.74,4.59t4.46,14.13v38.21h-9.39V872.35a25.92,25.92,0,0,0-.91-8.15,7.86,7.86,0,0,0-3.33-4,10.44,10.44,0,0,0-5.66-1.52,13.17,13.17,0,0,0-9.75,3.9c-2.59,2.61-3.88,6.77-3.88,12.51v32.34h-9.43V871.25q0-6.29-2.31-9.44t-7.55-3.14a13.68,13.68,0,0,0-7.36,2.1,11.81,11.81,0,0,0-4.9,6.13q-1.53,4-1.52,11.63v28.89Z"/><path class="cls-3" d="M924.2,907.42v-8.18q-6.51,9.43-17.67,9.43a22.66,22.66,0,0,1-9.2-1.88A15.17,15.17,0,0,1,891,902a17.74,17.74,0,0,1-2.91-7,48.55,48.55,0,0,1-.57-8.81V851.75h9.43v30.87a54.36,54.36,0,0,0,.58,10,9.86,9.86,0,0,0,3.77,5.85,11.73,11.73,0,0,0,7.13,2.12,15.54,15.54,0,0,0,8-2.18,12.07,12.07,0,0,0,5.26-5.92q1.54-3.75,1.55-10.88V851.75h9.43v55.67Z"/><path class="cls-3" d="M945.22,907.42V851.75h8.49v7.92q6.13-9.18,17.72-9.18a23.3,23.3,0,0,1,9.25,1.81,14.62,14.62,0,0,1,6.32,4.75,18.13,18.13,0,0,1,2.93,7,53.68,53.68,0,0,1,.53,9.17v34.23H981V873.56a25.31,25.31,0,0,0-1.1-8.63,9.07,9.07,0,0,0-3.9-4.56,12.47,12.47,0,0,0-6.58-1.7A15.27,15.27,0,0,0,959,862.5q-4.38,3.82-4.38,14.51v30.41Z"/><path class="cls-3" d="M1242.26,907.42V851.75h8.49v7.92q6.13-9.18,17.72-9.18a23.3,23.3,0,0,1,9.25,1.81,14.62,14.62,0,0,1,6.32,4.75,18.13,18.13,0,0,1,2.93,7,53.68,53.68,0,0,1,.53,9.17v34.23h-9.44V873.56a25.31,25.31,0,0,0-1.1-8.63,9.07,9.07,0,0,0-3.9-4.56,12.47,12.47,0,0,0-6.58-1.7,15.27,15.27,0,0,0-10.4,3.83q-4.38,3.82-4.38,14.51v30.41Z"/><path class="cls-3" d="M1294.85,890.8l9.33-1.47a13,13,0,0,0,4.38,8.6q3.59,3,10,3t9.64-2.65a7.9,7.9,0,0,0,3.14-6.21,5.72,5.72,0,0,0-2.77-5q-2-1.26-9.65-3.2-10.38-2.62-14.38-4.53a13.78,13.78,0,0,1-8.16-12.77,14.27,14.27,0,0,1,1.71-6.89,15.25,15.25,0,0,1,4.64-5.27,19.33,19.33,0,0,1,6-2.75,28.56,28.56,0,0,1,8.15-1.13,32.13,32.13,0,0,1,11.5,1.89,15.68,15.68,0,0,1,7.32,5.11,20.07,20.07,0,0,1,3.25,8.62l-9.23,1.26a10.11,10.11,0,0,0-3.64-6.71q-3-2.42-8.52-2.41c-4.33,0-7.43.72-9.28,2.15a6.26,6.26,0,0,0-2.78,5,5.19,5.19,0,0,0,1.16,3.3,8.24,8.24,0,0,0,3.61,2.52q1.43.53,8.34,2.41a115.07,115.07,0,0,1,14,4.38,14.13,14.13,0,0,1,6.21,5,13.86,13.86,0,0,1,2.25,8.07,15.88,15.88,0,0,1-2.75,8.89,17.79,17.79,0,0,1-7.94,6.44,28.9,28.9,0,0,1-11.74,2.28q-10.85,0-16.54-4.5T1294.85,890.8Z"/><path class="cls-3" d="M1001.73,841.42V830.58h9.44v10.84Zm0,66V851.75h9.44v55.67Z"/><path class="cls-3" d="M1162.75,841.42V830.58h9.44v10.84Zm0,66V851.75h9.44v55.67Z"/><path class="cls-3" d="M1154,899l1.37,8.33a35,35,0,0,1-7.13.84c-3.43,0-6.08-.54-8-1.63a9.09,9.09,0,0,1-4-4.27q-1.15-2.64-1.15-11.14v-32h-6.92v-7.34h6.92V838l9.38-5.67v19.45H1154v7.34h-9.48v32.55a16.19,16.19,0,0,0,.5,5.19,3.88,3.88,0,0,0,1.62,1.83,6.22,6.22,0,0,0,3.22.68A31.2,31.2,0,0,0,1154,899Z"/><path class="cls-3" d="M1112.28,900.55a35,35,0,0,1-10.09,6.29,29.2,29.2,0,0,1-10.4,1.83q-9.18,0-14.1-4.48a14.77,14.77,0,0,1-4.93-11.45,15.22,15.22,0,0,1,1.86-7.47,15.52,15.52,0,0,1,4.88-5.43,22.93,22.93,0,0,1,6.78-3.09,66.65,66.65,0,0,1,8.39-1.41q11.43-1.37,16.82-3.25c0-1.29.06-2.12.06-2.47q0-5.76-2.68-8.12-3.61-3.19-10.74-3.2-6.66,0-9.83,2.33t-4.69,8.26l-9.23-1.26a22.75,22.75,0,0,1,4.15-9.56,18.08,18.08,0,0,1,8.33-5.61,37.14,37.14,0,0,1,12.63-2,33.37,33.37,0,0,1,11.58,1.68,15.37,15.37,0,0,1,6.56,4.22,14.94,14.94,0,0,1,2.93,6.42,52.58,52.58,0,0,1,.47,8.7v12.58q0,13.15.61,16.64a21,21,0,0,0,2.38,6.69h-9.85A20,20,0,0,1,1112.28,900.55Zm-.79-21.07q-5.13,2.1-15.41,3.56a35.76,35.76,0,0,0-8.23,1.89,8.26,8.26,0,0,0-3.72,3.07,8.33,8.33,0,0,0,1.55,10.77q2.85,2.51,8.36,2.51a19.48,19.48,0,0,0,9.7-2.38,14.64,14.64,0,0,0,6.23-6.53c1-2.13,1.52-5.27,1.52-9.43Z"/></svg>