<svg id="Layer_1" data-name="Layer 1" xmlns="http://www.w3.org/2000/svg" viewBox="0 0 1500 1500"><defs><style>.cls-1{fill:#cccccb;}.cls-2{fill:#308743;}.cls-3{fill:#fff;}.cls-4{fill:#feffff;}</style></defs><title>ngoma communication jpeg</title><rect class="cls-1" width="1500" height="1500"/><path class="cls-2" d="M717.42,607.75c4.39.81,8.84,1.41,13.17,2.46,40.78,9.86,71.85,32.28,85.77,72.74,25.46,74-27.37,131.79-83.17,143.84-52.63,11.36-105.53-11.9-130.22-57.37-26.07-48-11.38-107.49,34.35-139.68,18.44-13,38.67-20.4,61.34-20.85a81.8,81.8,0,0,0,9-1.14ZM707.36,820c11.63.95,24.08-1.43,36.27-5.65,47.77-16.53,75.5-61.19,68.85-108.69-7.58-54.1-52.27-84.89-97-88.09-38.86-2.78-71.49,11.05-96,42.39-20.48,26.23-24.17,55.94-15.87,86.79C615.17,789.67,659.54,821.91,707.36,820Z"/><path class="cls-2" d="M719,733.22c4.83-6.58,9.39-12.53,13.66-18.68,4.13-5.95,8-12.11,12.38-18.88L719.76,689c0,4.88-.37,9,.08,13a57.68,57.68,0,0,1-4.22,29c-3.36,8.07-3.38,8.07-11.4,4.38,2-6.08,4.7-12,5.66-18.27,1-6.48.59-13.24.2-19.85-.29-5-.29-9.09,6.51-9.39L690,673.15c-1.4,7.14-3.13,13.87-3.91,20.71-.67,5.82-.38,11.77-.24,17.66.08,3.34.16,5.93-4.37,6.26-5,.37-4.5-2.87-4.71-5.89-.89-13,.09-25.82,4-38.38a77.83,77.83,0,0,0,2.35-12.66c.55-4.06,2.6-7.29,6.58-7.36,6.54-.1,13.39-.17,19.58,1.59,10.82,3.08,21.24,7.56,31.7,11.4-1.43,8.5-2.74,9.09-9.84,6.39q-13.55-5.18-27.36-9.64c-2.62-.85-5.59-.59-8.79-.87,5.85,10.23,40.4,24.6,54.74,22.92-.8-1.15-2.08-2.15-2-3a16,16,0,0,1,1.93-6.42c.39-.62,3.29-.47,4.4.29a20.75,20.75,0,0,1,5.26,5.31c4.28,6.24,2.24,11.47-5,13.49-1.87.52-3.75.94-6.85,1.71,5.75,2.14,4.36,5,2.38,7.93-6.87,10.29-13.39,20.86-20.75,30.79C726,739.52,723.05,734.52,719,733.22Z"/><path class="cls-2" d="M686.45,775.59l-6.7-1.3c.67,7.18,14.33,14.86,24.68,13.53,0-6.46.07-13.06,0-19.66s-2.32-13,.64-19.64a8.76,8.76,0,0,1,7.09,8.31c.93,12.31,1.36,24.65,2,37.74a56.47,56.47,0,0,0-6.08-1c-1.16-.05-3.16.11-3.39.72-2,5-5.67,3.17-9.08,2.62-7.8-1.28-13.94-5.38-19.32-11-3.21-3.33-6.77-6.31-10.5-9.75l-3.27,4.06c-4.74-2.74,10.83-36.08,21.56-46.36,6.44,3.3,6.84,5.25,2.82,10.77-4.54,6.23-8.86,12.62-13.15,19-3.64,5.46-3.34,6.1,4.17,8.88,4.14-6.79,8.11-14,12.85-20.65,1.5-2.11,5.08-2.74,8.6-4.5C700.49,760.3,691.72,767,686.45,775.59Z"/><path class="cls-2" d="M694.5,681.32c8.1,1.43,8.29,2.21,7.82,9.63-.58,9.26-.31,18.56-.51,27.85a57,57,0,0,1-.88,10.62c-.37,1.73-2.25,3.13-3.2,4.37-2.05-4.44-5.13-8.17-5.27-12-.42-10.88.29-21.81.72-32.71A60.19,60.19,0,0,1,694.5,681.32Z"/><path class="cls-3" d="M335.59,822.2V709.44q0-66.33-48.16-66.33a55.45,55.45,0,0,0-23.7,5.07,56.88,56.88,0,0,0-18.83,14.05,65.93,65.93,0,0,0-12.42,21.31A77.39,77.39,0,0,0,228,710.2v112H203.53V626.49H228v34h.76q21.8-38.61,65.56-38.61,32.12,0,48.93,20.83t16.82,60.21V822.2Z"/><path class="cls-3" d="M578.66,807.1q0,54.48-24.75,80.75t-76.35,26.28a134,134,0,0,1-60.78-14.33V875q31.92,17.77,60.78,17.78,76.63,0,76.64-81V788.18h-.76q-22.56,38.61-68.81,38.61a80.49,80.49,0,0,1-33.16-6.69,71.48,71.48,0,0,1-25.71-19.3q-10.71-12.62-16.63-30.68t-5.92-40.81q0-24.07,6.31-43.86a100.88,100.88,0,0,1,18-33.93,80.23,80.23,0,0,1,28.19-21.88q16.53-7.74,37.18-7.74,41.48,0,60.59,33.64h.76v-29h24.46ZM554.2,703.32a61.29,61.29,0,0,0-4.4-23.13,59.94,59.94,0,0,0-12.23-19.11A59,59,0,0,0,518.94,648a57.21,57.21,0,0,0-23.8-4.88A63,63,0,0,0,467.52,649a59.74,59.74,0,0,0-21,16.82,77.77,77.77,0,0,0-13.38,26.47,121.81,121.81,0,0,0-4.68,35.07,112,112,0,0,0,4.39,32.49,73.49,73.49,0,0,0,12.43,24.66,55.44,55.44,0,0,0,19.4,15.67A56.94,56.94,0,0,0,490,805.76a64.48,64.48,0,0,0,26.38-5.25A59.64,59.64,0,0,0,536.62,786a65.74,65.74,0,0,0,13-21.79,77.93,77.93,0,0,0,4.59-27Z"/><path class="cls-3" d="M1096.84,822.27V707.12q0-17.6-2.68-29.74t-8.32-19.79a32.3,32.3,0,0,0-14.34-11.1q-8.71-3.43-20.75-3.44a42.65,42.65,0,0,0-20.28,5.07,53.75,53.75,0,0,0-16.74,14A68,68,0,0,0,1002.45,683a80.14,80.14,0,0,0-4.11,26V822.27H973.86V704.64q0-61.59-47.25-61.59a43.24,43.24,0,0,0-20.27,4.88A50.68,50.68,0,0,0,890,661.6a65.6,65.6,0,0,0-10.9,21.14A89.74,89.74,0,0,0,875.16,710V822.27H850.68V626.41h24.48v31.75h.77q20.66-36.35,60.25-36.34a59.41,59.41,0,0,1,19.5,3.16,56.34,56.34,0,0,1,16.45,8.79,57.57,57.57,0,0,1,12.53,13.49,60.7,60.7,0,0,1,7.94,17.21q10.33-20.85,26.87-31.75a66.45,66.45,0,0,1,37.4-10.9q64.44,0,64.45,79.57V822.27Z"/><path class="cls-3" d="M1291.12,822.27V787.46h-.76q-9.57,18.74-26.11,29.07a69.21,69.21,0,0,1-37.39,10.33,76.34,76.34,0,0,1-25.54-4A54.79,54.79,0,0,1,1182,811.46a50.16,50.16,0,0,1-12.24-17.69,58.6,58.6,0,0,1-4.3-22.76q0-26.58,16.45-42.37t49.73-20.56l59.48-8.61q0-56.41-43.8-56.42-34.23,0-63.5,25.06V641.33a82.28,82.28,0,0,1,13.87-7.94,126.69,126.69,0,0,1,16.35-6.12,135.61,135.61,0,0,1,17.69-4,114.25,114.25,0,0,1,17.7-1.43q32.7,0,49.44,18.36t16.73,54.7V822.27Zm-50.49-95.06a152.71,152.71,0,0,0-22.57,4.78,46.22,46.22,0,0,0-15.5,7.75,28.8,28.8,0,0,0-9,12q-2.88,7.17-2.87,17.69a37.53,37.53,0,0,0,2.77,14.53,32.62,32.62,0,0,0,8,11.58,36.47,36.47,0,0,0,12.82,7.55,50.89,50.89,0,0,0,17.12,2.68,56.51,56.51,0,0,0,42.74-18.75,63.83,63.83,0,0,0,12.44-21,76.65,76.65,0,0,0,4.49-26.58V720.13Z"/><path class="cls-4" d="M620.05,887l9.28,1.2q-1.53,9.6-7.79,15a22.68,22.68,0,0,1-15.38,5.42q-11.43,0-18.37-7.47t-6.95-21.41a38.72,38.72,0,0,1,3-15.77,20.85,20.85,0,0,1,9.09-10.15,27,27,0,0,1,13.29-3.38q9.07,0,14.83,4.59t7.4,13l-9.18,1.42a15.22,15.22,0,0,0-4.64-8.44,12,12,0,0,0-8-2.83A14.65,14.65,0,0,0,595,863.36q-4.46,5.11-4.45,16.17,0,11.22,4.3,16.3a14,14,0,0,0,11.21,5.09,13.22,13.22,0,0,0,9.28-3.41Q619.05,894.11,620.05,887Z"/><path class="cls-4" d="M1036.5,887l9.27,1.2q-1.51,9.6-7.78,15a22.7,22.7,0,0,1-15.38,5.42q-11.43,0-18.38-7.47t-6.94-21.41a38.72,38.72,0,0,1,3-15.77,20.85,20.85,0,0,1,9.09-10.15,27,27,0,0,1,13.29-3.38q9.06,0,14.83,4.59t7.39,13l-9.17,1.42q-1.32-5.61-4.64-8.44a12,12,0,0,0-8-2.83,14.63,14.63,0,0,0-11.58,5.11q-4.46,5.11-4.45,16.17,0,11.22,4.29,16.3a14,14,0,0,0,11.22,5.09,13.24,13.24,0,0,0,9.28-3.41Q1035.5,894.11,1036.5,887Z"/><path class="cls-4" d="M632.43,879.58q0-15.45,8.6-22.9a25.85,25.85,0,0,1,17.5-6.19q11.47,0,18.77,7.52t7.28,20.79q0,10.74-3.22,16.9a22.83,22.83,0,0,1-9.38,9.57,27.35,27.35,0,0,1-13.45,3.4q-11.68,0-18.89-7.49T632.43,879.58Zm9.7,0q0,10.7,4.66,16a15.53,15.53,0,0,0,23.43,0q4.66-5.34,4.67-16.3,0-10.34-4.7-15.65a15.54,15.54,0,0,0-23.4,0Q642.13,868.9,642.13,879.58Z"/><path class="cls-4" d="M1157.34,879.58q0-15.45,8.6-22.9a25.88,25.88,0,0,1,17.51-6.19q11.47,0,18.76,7.52t7.29,20.79q0,10.74-3.23,16.9a22.72,22.72,0,0,1-9.38,9.57,27.31,27.31,0,0,1-13.44,3.4q-11.7,0-18.9-7.49T1157.34,879.58Zm9.7,0q0,10.7,4.67,16a15.53,15.53,0,0,0,23.43,0q4.66-5.34,4.66-16.3,0-10.34-4.69-15.65a15.54,15.54,0,0,0-23.4,0Q1167,868.9,1167,879.58Z"/><path class="cls-4" d="M691.67,907.42V851.75h8.43v7.81a19.87,19.87,0,0,1,7-6.58,19.57,19.57,0,0,1,9.9-2.49,18.31,18.31,0,0,1,10.14,2.57,13.79,13.79,0,0,1,5.59,7.18q6.6-9.75,17.19-9.75,8.28,0,12.73,4.59t4.46,14.13v38.21h-9.38V872.35a25.86,25.86,0,0,0-.92-8.15,7.86,7.86,0,0,0-3.33-4,10.41,10.41,0,0,0-5.66-1.52,13.2,13.2,0,0,0-9.75,3.9c-2.58,2.61-3.88,6.77-3.88,12.51v32.34h-9.43V871.25q0-6.29-2.31-9.44t-7.54-3.14a13.69,13.69,0,0,0-7.37,2.1,11.86,11.86,0,0,0-4.9,6.13q-1.51,4-1.52,11.63v28.89Z"/><path class="cls-4" d="M777.79,907.42V851.75h8.44v7.81a19.92,19.92,0,0,1,7-6.58,19.58,19.58,0,0,1,9.91-2.49,18.33,18.33,0,0,1,10.14,2.57,13.73,13.73,0,0,1,5.58,7.18q6.6-9.75,17.19-9.75,8.28,0,12.74,4.59t4.46,14.13v38.21h-9.39V872.35a25.92,25.92,0,0,0-.91-8.15,8,8,0,0,0-3.33-4,10.44,10.44,0,0,0-5.66-1.52,13.17,13.17,0,0,0-9.75,3.9c-2.59,2.61-3.88,6.77-3.88,12.51v32.34h-9.44V871.25c0-4.19-.76-7.34-2.3-9.44s-4.06-3.14-7.55-3.14a13.66,13.66,0,0,0-7.36,2.1,11.81,11.81,0,0,0-4.9,6.13q-1.53,4-1.52,11.63v28.89Z"/><path class="cls-4" d="M900.36,907.42v-8.18q-6.51,9.43-17.67,9.43a22.66,22.66,0,0,1-9.2-1.88,15.11,15.11,0,0,1-6.34-4.75,17.74,17.74,0,0,1-2.91-7,48.55,48.55,0,0,1-.57-8.81V851.75h9.43v30.87a54.36,54.36,0,0,0,.58,10,9.86,9.86,0,0,0,3.77,5.85,11.73,11.73,0,0,0,7.13,2.12,15.57,15.57,0,0,0,8-2.18,12.07,12.07,0,0,0,5.26-5.92q1.55-3.75,1.55-10.88V851.75h9.43v55.67Z"/><path class="cls-4" d="M921.38,907.42V851.75h8.49v7.92q6.14-9.18,17.72-9.18a23.34,23.34,0,0,1,9.25,1.81,14.62,14.62,0,0,1,6.32,4.75,18.29,18.29,0,0,1,2.93,7,53.68,53.68,0,0,1,.53,9.17v34.23h-9.44V873.56a25.57,25.57,0,0,0-1.1-8.63,9.12,9.12,0,0,0-3.9-4.56,12.49,12.49,0,0,0-6.58-1.7,15.31,15.31,0,0,0-10.41,3.83q-4.37,3.82-4.37,14.51v30.41Z"/><path class="cls-4" d="M1218.42,907.42V851.75h8.49v7.92q6.13-9.18,17.72-9.18a23.34,23.34,0,0,1,9.25,1.81,14.62,14.62,0,0,1,6.32,4.75,18.29,18.29,0,0,1,2.93,7,53.68,53.68,0,0,1,.53,9.17v34.23h-9.44V873.56a25.57,25.57,0,0,0-1.1-8.63,9.12,9.12,0,0,0-3.9-4.56,12.49,12.49,0,0,0-6.58-1.7,15.31,15.31,0,0,0-10.41,3.83q-4.37,3.82-4.37,14.51v30.41Z"/><path class="cls-4" d="M1271,890.8l9.33-1.47a13,13,0,0,0,4.38,8.6q3.58,3,10,3t9.65-2.65a7.9,7.9,0,0,0,3.14-6.21,5.72,5.72,0,0,0-2.77-5q-1.95-1.26-9.65-3.2-10.38-2.62-14.39-4.53a13.75,13.75,0,0,1-8.15-12.77,14.27,14.27,0,0,1,1.71-6.89,15.25,15.25,0,0,1,4.64-5.27,19.33,19.33,0,0,1,6-2.75,28.56,28.56,0,0,1,8.15-1.13,32.13,32.13,0,0,1,11.5,1.89,15.65,15.65,0,0,1,7.31,5.11,19.81,19.81,0,0,1,3.25,8.62l-9.22,1.26a10.11,10.11,0,0,0-3.64-6.71q-3-2.42-8.52-2.41c-4.33,0-7.43.72-9.28,2.15a6.26,6.26,0,0,0-2.78,5,5.19,5.19,0,0,0,1.16,3.3,8.24,8.24,0,0,0,3.61,2.52q1.42.53,8.34,2.41a115.07,115.07,0,0,1,14,4.38,14.19,14.19,0,0,1,6.21,5,13.86,13.86,0,0,1,2.25,8.07,15.88,15.88,0,0,1-2.75,8.89,17.85,17.85,0,0,1-7.94,6.44,28.93,28.93,0,0,1-11.74,2.28q-10.86,0-16.54-4.5T1271,890.8Z"/><path class="cls-4" d="M977.89,841.42V830.58h9.44v10.84Zm0,66V851.75h9.44v55.67Z"/><path class="cls-4" d="M1138.91,841.42V830.58h9.44v10.84Zm0,66V851.75h9.44v55.67Z"/><path class="cls-4" d="M1130.18,899l1.37,8.33a35,35,0,0,1-7.13.84c-3.43,0-6.08-.54-8-1.63a9,9,0,0,1-4-4.27q-1.15-2.64-1.16-11.14v-32h-6.91v-7.34h6.91V838l9.39-5.67v19.45h9.48v7.34h-9.48v32.55a16.6,16.6,0,0,0,.49,5.19,4,4,0,0,0,1.63,1.83,6.2,6.2,0,0,0,3.22.68A31.2,31.2,0,0,0,1130.18,899Z"/><path class="cls-4" d="M1088.44,900.55a35.18,35.18,0,0,1-10.09,6.29,29.2,29.2,0,0,1-10.4,1.83q-9.18,0-14.1-4.48a14.77,14.77,0,0,1-4.93-11.45,15.22,15.22,0,0,1,1.86-7.47,15.49,15.49,0,0,1,4.87-5.43,23.11,23.11,0,0,1,6.79-3.09,66.65,66.65,0,0,1,8.39-1.41q11.43-1.37,16.82-3.25c0-1.29.06-2.12.06-2.47,0-3.84-.9-6.55-2.68-8.12q-3.62-3.19-10.74-3.2-6.66,0-9.83,2.33t-4.69,8.26l-9.23-1.26a22.87,22.87,0,0,1,4.14-9.56,18.17,18.17,0,0,1,8.34-5.61,37.14,37.14,0,0,1,12.63-2,33.37,33.37,0,0,1,11.58,1.68,15.37,15.37,0,0,1,6.56,4.22,14.94,14.94,0,0,1,2.93,6.42,52.58,52.58,0,0,1,.47,8.7v12.58q0,13.15.6,16.64a21.22,21.22,0,0,0,2.39,6.69h-9.85A20,20,0,0,1,1088.44,900.55Zm-.79-21.07q-5.13,2.1-15.41,3.56a35.62,35.62,0,0,0-8.23,1.89,8.26,8.26,0,0,0-3.72,3.07,8.33,8.33,0,0,0,1.55,10.77q2.85,2.51,8.36,2.51a19.48,19.48,0,0,0,9.7-2.38,14.7,14.7,0,0,0,6.23-6.53c1-2.13,1.52-5.27,1.52-9.43Z"/></svg>