<svg id="Layer_1" data-name="Layer 1" xmlns="http://www.w3.org/2000/svg" viewBox="0 0 1500 1500"><defs><style>.cls-1{fill:#308743;}</style></defs><title>ngoma communication icon</title><path class="cls-1" d="M859.42,205.52c23.25,4.28,46.77,7.46,69.71,13,215.9,52.23,380.4,170.94,454.1,385.14,134.8,391.8-144.91,697.77-440.31,761.54-278.67,60.16-558.78-63-689.51-303.71-138-254.15-60.24-569.11,181.88-739.58C533,253.16,640,214,760.08,211.56c16-.31,31.91-3.94,47.86-6ZM806.13,1329.19c61.6,5,127.51-7.57,192-29.9,252.95-87.55,399.75-324,364.52-575.5C1322.57,437.34,1086,274.34,849,257.4c-205.77-14.71-378.53,58.5-508,224.42C232.54,620.71,213,778,256.91,941.34,318,1168.71,553,1339.42,806.13,1329.19Z"/><path class="cls-1" d="M867.67,869.83c25.57-34.85,49.7-66.36,72.3-98.92,21.87-31.51,42.17-64.12,65.59-99.95L871.81,635.87c0,25.84-2,47.51.39,68.68,6,53.4-1.87,104.34-22.35,153.62-17.77,42.75-17.87,42.71-60.33,23.21,10.38-32.19,24.87-63.75,30-96.76,5.28-34.31,3.11-70.11,1.07-105.07C819,653.12,819,631.42,855,629.8L714,551.76c-7.38,37.82-16.56,73.46-20.71,109.68-3.53,30.82-2,62.32-1.25,93.49.42,17.69.85,31.38-23.12,33.16-26.32,2-23.85-15.21-24.94-31.18-4.72-69,.45-136.74,21.12-203.24,6.7-21.56,9.36-44.51,12.43-67,2.94-21.51,13.77-38.62,34.83-38.95,34.63-.53,70.89-.92,103.67,8.41,57.3,16.29,112.48,40,167.83,60.35-7.56,45-14.51,48.16-52.06,33.83q-71.75-27.37-144.89-51c-13.85-4.51-29.62-3.14-46.55-4.64,31,54.2,213.91,130.26,289.83,121.38-4.22-6.07-11-11.42-10.46-15.9,1.38-11.72,4.19-24.15,10.23-34,2-3.32,17.42-2.5,23.26,1.49A110.18,110.18,0,0,1,1081,595.78c22.68,33,11.9,60.73-26.74,71.43-9.86,2.73-19.84,5-36.22,9.06,30.45,11.31,23,26.29,12.58,42-36.39,54.52-70.87,110.45-109.85,163C904.57,903.16,889.21,876.69,867.67,869.83Z"/><path class="cls-1" d="M695.42,1094.16l-35.48-6.88c3.57,38,75.89,78.66,130.7,71.64,0-34.19.38-69.16-.11-104.12-.49-34.28-12.27-69.09,3.36-103.95,25.1,6.35,36.07,23.88,37.58,44,4.9,65.16,7.2,130.52,10.71,199.82-14.13-2.43-23.1-4.84-32.16-5.24-6.15-.27-16.73.58-18,3.79-10.32,26.59-30,16.83-48.06,13.87-41.27-6.75-73.78-28.49-102.31-58.13-17-17.62-35.83-33.4-55.58-51.62l-17.32,21.52c-25.07-14.49,57.34-191,114.15-245.49,34.12,17.5,36.2,27.84,15,57-24,33-47,66.85-69.63,100.8-19.29,28.88-17.7,32.27,22.06,47,21.94-35.94,42.93-74.08,68-109.28,8-11.18,26.88-14.55,45.54-23.85C769.75,1013.21,723.33,1048.39,695.42,1094.16Z"/><path class="cls-1" d="M738.07,595c42.88,7.59,43.85,11.75,41.38,51-3.09,49-1.62,98.29-2.72,147.44-.43,18.83-.73,38-4.64,56.26-2,9.15-11.9,16.58-17,23.13-10.84-23.54-27.14-43.27-27.92-63.6C725,751.65,728.8,693.8,731,636.08,731.55,623,735.4,610.08,738.07,595Z"/></svg>