<svg id="Layer_1" data-name="Layer 1" xmlns="http://www.w3.org/2000/svg" viewBox="0 0 1500 1500"><defs><style>.cls-1{fill:#cccccb;}.cls-2{fill:#283a83;}.cls-3{fill:#fff;}</style></defs><title>ngoma digitech jpeg</title><rect class="cls-1" width="1500" height="1500"/><path class="cls-2" d="M724.47,574c4.64.85,9.34,1.49,13.92,2.59,43.11,10.43,76,34.14,90.67,76.91,26.92,78.23-28.93,139.32-87.92,152.06-55.64,12-111.57-12.58-137.67-60.65-27.56-50.74-12-113.63,36.31-147.67,19.51-13.73,40.89-21.56,64.85-22a86.1,86.1,0,0,0,9.56-1.2ZM713.83,798.36c12.3,1,25.46-1.51,38.35-6C802.68,774.91,832,727.7,825,677.48c-8-57.19-55.26-89.74-102.58-93.12C681.3,581.42,646.8,596,621,629.17c-21.65,27.73-25.55,59.14-16.78,91.75C616.37,766.32,663.28,800.41,713.83,798.36Z"/><path class="cls-2" d="M726.12,706.64c5.1-7,9.92-13.25,14.43-19.75,4.37-6.29,8.42-12.8,13.1-20l-26.71-7c0,5.15-.39,9.48.08,13.71a60.82,60.82,0,0,1-4.46,30.67c-3.55,8.54-3.57,8.53-12,4.64,2.07-6.43,5-12.73,6-19.32,1.06-6.85.62-14,.22-21-.31-5.28-.31-9.61,6.88-9.94l-28.17-15.58c-1.47,7.55-3.3,14.67-4.13,21.9-.71,6.16-.4,12.45-.25,18.67.08,3.53.17,6.26-4.62,6.62-5.25.39-4.76-3-5-6.23-.94-13.77.09-27.3,4.22-40.58a82,82,0,0,0,2.48-13.38c.59-4.29,2.75-7.71,7-7.78,6.91-.1,14.15-.18,20.7,1.68,11.44,3.26,22.46,8,33.51,12.05-1.51,9-2.9,9.62-10.4,6.76q-14.32-5.48-28.93-10.19c-2.76-.9-5.91-.63-9.29-.93,6.18,10.83,42.71,26,57.87,24.24-.85-1.21-2.2-2.28-2.09-3.17a16.89,16.89,0,0,1,2-6.79c.41-.66,3.48-.49,4.65.3a22.17,22.17,0,0,1,5.56,5.62c4.52,6.59,2.37,12.13-5.34,14.26-2,.55-4,1-7.24,1.81,6.08,2.26,4.6,5.25,2.52,8.38-7.27,10.89-14.16,22-21.94,32.56C733.48,713.3,730.42,708,726.12,706.64Z"/><path class="cls-2" d="M691.72,751.43l-7.08-1.37c.71,7.59,15.15,15.71,26.1,14.31,0-6.83.07-13.82,0-20.79s-2.45-13.8.68-20.76a9.27,9.27,0,0,1,7.5,8.78c1,13,1.44,26.06,2.14,39.9a57.56,57.56,0,0,0-6.42-1c-1.23-.05-3.34.12-3.59.76-2.06,5.31-6,3.36-9.6,2.77-8.24-1.35-14.73-5.69-20.43-11.61-3.38-3.52-7.15-6.67-11.1-10.3l-3.45,4.29c-5-2.89,11.44-38.14,22.79-49,6.81,3.5,7.23,5.56,3,11.39-4.79,6.59-9.37,13.35-13.9,20.13-3.85,5.76-3.53,6.44,4.41,9.38,4.38-7.18,8.57-14.8,13.58-21.83,1.59-2.23,5.37-2.9,9.09-4.76C706.57,735.27,697.3,742.29,691.72,751.43Z"/><path class="cls-2" d="M700.24,651.77c8.56,1.51,8.76,2.34,8.26,10.18-.61,9.79-.32,19.63-.54,29.44a61,61,0,0,1-.93,11.24c-.39,1.82-2.37,3.31-3.38,4.61-2.17-4.7-5.42-8.64-5.58-12.69-.44-11.51.32-23.06.77-34.58C698.94,657.36,699.71,654.78,700.24,651.77Z"/><path class="cls-3" d="M321.06,800.74V681.36q0-70.22-51-70.22A58.89,58.89,0,0,0,245,616.5,60.32,60.32,0,0,0,225,631.37a69.87,69.87,0,0,0-13.15,22.57,81.85,81.85,0,0,0-4.76,28.23V800.74h-25.9V593.54h25.9v36h.81q23.07-40.86,69.41-40.87,34,0,51.8,22.06T347,674.48V800.74Z"/><path class="cls-3" d="M578.4,784.76q0,57.66-26.2,85.49t-80.84,27.83A141.93,141.93,0,0,1,407,882.9V856.59q33.8,18.82,64.35,18.82,81.14,0,81.14-85.8V764.72h-.81q-23.88,40.89-72.85,40.88a85.23,85.23,0,0,1-35.1-7.08,75.62,75.62,0,0,1-27.22-20.44q-11.34-13.35-17.6-32.48t-6.28-43.2q0-25.5,6.68-46.44t19-35.92a85,85,0,0,1,29.85-23.17q17.49-8.19,39.36-8.19,43.91,0,64.14,35.61h.81V593.54h25.9ZM552.5,674.88a64.85,64.85,0,0,0-4.65-24.48,63.52,63.52,0,0,0-13-20.24,62.56,62.56,0,0,0-19.73-13.86,60.57,60.57,0,0,0-25.2-5.16,66.67,66.67,0,0,0-29.24,6.27,63.34,63.34,0,0,0-22.26,17.81,82.43,82.43,0,0,0-14.16,28q-5,16.49-5,37.13a118.29,118.29,0,0,0,4.66,34.4,77.72,77.72,0,0,0,13.15,26.1,58.79,58.79,0,0,0,20.54,16.59,60.24,60.24,0,0,0,26.81,5.87,68.1,68.1,0,0,0,27.92-5.56,63.09,63.09,0,0,0,21.45-15.38,69.25,69.25,0,0,0,13.76-23.07,82.51,82.51,0,0,0,4.86-28.63Z"/><path class="cls-3" d="M1125.8,800.74V678.93q0-18.61-2.84-31.47t-8.8-20.94A34.2,34.2,0,0,0,1099,614.78q-9.2-3.64-22-3.64a45.18,45.18,0,0,0-21.45,5.36,56.89,56.89,0,0,0-17.71,14.77,72.18,72.18,0,0,0-11.93,22.16,84.45,84.45,0,0,0-4.35,27.52V800.74H995.68V676.3q0-65.16-50-65.16a45.77,45.77,0,0,0-21.45,5.16A53.66,53.66,0,0,0,907,630.77a69.41,69.41,0,0,0-11.53,22.36A94.67,94.67,0,0,0,891.27,682V800.74h-25.9V593.54h25.9v33.59h.81q21.85-38.45,63.74-38.45A62.9,62.9,0,0,1,976.46,592a59.71,59.71,0,0,1,17.4,9.31,60.71,60.71,0,0,1,13.26,14.26,64.6,64.6,0,0,1,8.4,18.21q10.92-22,28.43-33.59a70.25,70.25,0,0,1,39.56-11.53q68.17,0,68.19,84.18V800.74Z"/><path class="cls-3" d="M1331.34,800.74V763.92h-.81q-10.12,19.83-27.62,30.75t-39.56,10.93a80.89,80.89,0,0,1-27-4.25,57.8,57.8,0,0,1-20.43-12,52.82,52.82,0,0,1-13-18.72,61.87,61.87,0,0,1-4.56-24.08q0-28.12,17.4-44.82t52.62-21.75l62.93-9.11q0-59.69-46.34-59.69-36.23,0-67.18,26.51V609.32a87,87,0,0,1,14.67-8.4,135.31,135.31,0,0,1,17.3-6.47,142.13,142.13,0,0,1,18.72-4.25,120,120,0,0,1,18.71-1.52q34.6,0,52.31,19.43T1357.24,666V800.74Zm-53.42-100.56a162.83,162.83,0,0,0-23.88,5.05,49.15,49.15,0,0,0-16.39,8.2,30.52,30.52,0,0,0-9.51,12.75q-3,7.59-3,18.72a39.67,39.67,0,0,0,2.94,15.37,34.25,34.25,0,0,0,8.5,12.25,38.5,38.5,0,0,0,13.55,8,54,54,0,0,0,18.11,2.83,59.72,59.72,0,0,0,45.23-19.83,67.43,67.43,0,0,0,13.15-22.26,81,81,0,0,0,4.76-28.12V692.69Z"/><path class="cls-3" d="M662.37,879.79a22.32,22.32,0,0,1-.94,6.68,19.3,19.3,0,0,1-2.5,5.2,16.67,16.67,0,0,1-3.6,3.83,21.63,21.63,0,0,1-4.29,2.58,22.29,22.29,0,0,1-4.55,1.46,21.24,21.24,0,0,1-4.35.47h-26a21.71,21.71,0,0,1-6.65-.94,19.34,19.34,0,0,1-5.18-2.52,17.4,17.4,0,0,1-3.82-3.63,21.35,21.35,0,0,1-2.58-4.29,22.75,22.75,0,0,1-1.47-4.55,21.7,21.7,0,0,1-.47-4.29V860.28a20,20,0,0,1,2-9.39,19.09,19.09,0,0,1,11.6-9.72,23.27,23.27,0,0,1,6.54-1.06h26v14.41H616.26a6,6,0,0,0-4.37,1.47,5.74,5.74,0,0,0-1.5,4.29v19.4a6.07,6.07,0,0,0,1.47,4.43,5.74,5.74,0,0,0,4.29,1.5h26a5.81,5.81,0,0,0,4.38-1.5,6,6,0,0,0,1.44-4.32v-65h14.41Z"/><path class="cls-3" d="M696.75,827.81h-14.4v-13h14.4Zm0,72.2h-14.4v-59.9h14.4Z"/><path class="cls-3" d="M781.73,905.78a22.2,22.2,0,0,1-.94,6.67,19.23,19.23,0,0,1-2.5,5.21,16.87,16.87,0,0,1-3.6,3.83,21.11,21.11,0,0,1-4.29,2.57,21.54,21.54,0,0,1-4.55,1.47,22,22,0,0,1-4.35.47h-26V911.6h26a5.81,5.81,0,0,0,4.38-1.5,6,6,0,0,0,1.44-4.32v-45.5a5.13,5.13,0,0,0-5.82-5.76h-26a5.55,5.55,0,0,0-4.22,1.64,5.76,5.76,0,0,0-1.55,4.12v19.51a5.85,5.85,0,0,0,1.5,4.32,5.92,5.92,0,0,0,4.38,1.5H761.5V900h-26a21,21,0,0,1-4.33-.47,22.15,22.15,0,0,1-4.51-1.46,21.41,21.41,0,0,1-4.3-2.58,16.89,16.89,0,0,1-3.6-3.83,19.59,19.59,0,0,1-2.49-5.2,22,22,0,0,1-.94-6.68V860.28a21,21,0,0,1,.47-4.32,22.15,22.15,0,0,1,1.46-4.51,21.41,21.41,0,0,1,2.58-4.3,17,17,0,0,1,3.82-3.6,19.51,19.51,0,0,1,5.19-2.49,21.61,21.61,0,0,1,6.65-.95h26a22,22,0,0,1,4.35.47,22.75,22.75,0,0,1,4.55,1.47,21.63,21.63,0,0,1,4.29,2.58,16.82,16.82,0,0,1,3.6,3.82,19.61,19.61,0,0,1,2.5,5.18,22,22,0,0,1,.94,6.65Z"/><path class="cls-3" d="M815.56,827.81H801.15v-13h14.41Zm0,72.2H801.15v-59.9h14.41Z"/><path class="cls-3" d="M889.84,854.52H864.69V900H850.11V854.52H831.38V840.11h18.73V820.55h14.58v19.56h25.15Z"/><path class="cls-3" d="M969.56,860a22.37,22.37,0,0,1-1.06,6.46,19.31,19.31,0,0,1-3.4,6.42,19.11,19.11,0,0,1-6.16,5,19.6,19.6,0,0,1-9.22,2h-26V866.1h26a5.76,5.76,0,0,0,4.54-1.8,6.47,6.47,0,0,0,1.61-4.46,5.63,5.63,0,0,0-1.8-4.43,6.31,6.31,0,0,0-4.35-1.61h-26a5.76,5.76,0,0,0-4.54,1.8,6.42,6.42,0,0,0-1.61,4.46v20.12a5.69,5.69,0,0,0,1.8,4.48,6.42,6.42,0,0,0,4.46,1.61h25.88V900h-26a22.34,22.34,0,0,1-6.46-1,19.25,19.25,0,0,1-6.42-3.41,19,19,0,0,1-5-6.15,19.6,19.6,0,0,1-2-9.22V860a22.33,22.33,0,0,1,1.05-6.45,19.38,19.38,0,0,1,3.41-6.43,19,19,0,0,1,6.15-5,19.64,19.64,0,0,1,9.23-2h26a22.36,22.36,0,0,1,6.45,1.06,18.89,18.89,0,0,1,11.39,9.56A19.6,19.6,0,0,1,969.56,860Z"/><path class="cls-3" d="M1043.28,900h-39.06a23.12,23.12,0,0,1-6.54-1,19.16,19.16,0,0,1-6.57-3.46,19.59,19.59,0,0,1-5-6.26,20.13,20.13,0,0,1-2-9.45V860.28a22,22,0,0,1,1.94-8.83,20.91,20.91,0,0,1,2.57-4.3,17.1,17.1,0,0,1,3.83-3.6,19.3,19.3,0,0,1,5.18-2.49,21.66,21.66,0,0,1,6.65-.95h39.06v14.41h-39.06a5.9,5.9,0,0,0-4.3,1.44,6,6,0,0,0-1.46,4.43v19.4a5.84,5.84,0,0,0,1.49,4.32,5.93,5.93,0,0,0,4.38,1.5h38.95Z"/><path class="cls-3" d="M1075.84,900h-14.41V814.79h14.41Zm52,0h-14.41V860.28A5.89,5.89,0,0,0,1112,856a5.79,5.79,0,0,0-4.32-1.47h-26V840.11h26a21.67,21.67,0,0,1,4.32.47,23.13,23.13,0,0,1,4.52,1.47,21.63,21.63,0,0,1,4.29,2.58,16.82,16.82,0,0,1,3.6,3.82,19.61,19.61,0,0,1,2.5,5.18,22,22,0,0,1,.94,6.65Z"/></svg>