<svg id="Layer_1" data-name="Layer 1" xmlns="http://www.w3.org/2000/svg" viewBox="0 0 1500 1500"><defs><style>.cls-1{fill:#283a83;}.cls-2{fill:#fff;}</style></defs><title>ngoma digitech </title><path class="cls-1" d="M727.54,584.94c4.64.85,9.34,1.49,13.92,2.6,43.11,10.43,75.95,34.13,90.67,76.9C859,742.67,803.19,803.77,744.21,816.5c-55.64,12-111.57-12.58-137.68-60.64-27.55-50.75-12-113.64,36.32-147.68,19.5-13.73,40.88-21.56,64.85-22a89.21,89.21,0,0,0,9.56-1.21ZM716.9,809.31c12.3,1,25.46-1.52,38.34-6,50.51-17.48,79.82-64.69,72.79-114.91-8-57.19-55.26-89.74-102.58-93.12C684.36,592.36,649.87,607,624,640.11c-21.64,27.73-25.54,59.14-16.78,91.75C619.44,777.26,666.34,811.35,716.9,809.31Z"/><path class="cls-1" d="M729.18,717.59c5.11-7,9.93-13.26,14.44-19.76,4.37-6.29,8.42-12.8,13.1-20l-26.71-7c0,5.16-.4,9.48.08,13.71a60.84,60.84,0,0,1-4.46,30.68c-3.55,8.53-3.57,8.52-12,4.63,2.07-6.43,5-12.73,6-19.32,1.06-6.85.62-14,.21-21-.3-5.28-.31-9.61,6.89-9.93l-28.17-15.59c-1.47,7.56-3.31,14.67-4.13,21.9-.71,6.16-.4,12.45-.25,18.67.08,3.53.17,6.27-4.62,6.62-5.26.4-4.76-3-5-6.22-.94-13.77.09-27.31,4.22-40.58a83.38,83.38,0,0,0,2.48-13.39c.59-4.29,2.75-7.71,7-7.77,6.91-.11,14.15-.19,20.7,1.68,11.44,3.25,22.45,8,33.5,12-1.5,9-2.89,9.61-10.39,6.75q-14.33-5.46-28.93-10.19c-2.77-.9-5.91-.62-9.29-.92,6.18,10.82,42.71,26,57.87,24.23-.85-1.21-2.2-2.28-2.09-3.17a16.74,16.74,0,0,1,2-6.78c.41-.66,3.48-.5,4.64.3a21.65,21.65,0,0,1,5.56,5.61c4.53,6.6,2.38,12.13-5.34,14.27-2,.54-4,1-7.23,1.81,6.08,2.25,4.6,5.25,2.51,8.37-7.26,10.89-14.15,22.06-21.93,32.56C736.55,724.24,733.49,719,729.18,717.59Z"/><path class="cls-1" d="M694.79,762.38,687.71,761c.71,7.59,15.15,15.71,26.09,14.31,0-6.83.08-13.81,0-20.79s-2.45-13.8.67-20.76a9.27,9.27,0,0,1,7.51,8.78c1,13,1.44,26.06,2.14,39.9a60.07,60.07,0,0,0-6.43-1c-1.22-.06-3.34.11-3.59.75-2.06,5.31-6,3.36-9.59,2.77-8.24-1.35-14.73-5.69-20.43-11.61-3.39-3.51-7.15-6.66-11.1-10.3-1.49,1.85-2.47,3.08-3.46,4.3-5-2.9,11.45-38.15,22.8-49,6.81,3.49,7.22,5.56,3,11.38-4.79,6.59-9.37,13.35-13.9,20.13-3.85,5.77-3.53,6.44,4.41,9.38,4.38-7.18,8.57-14.79,13.58-21.82,1.59-2.23,5.37-2.91,9.09-4.77C709.63,746.21,700.36,753.24,694.79,762.38Z"/><path class="cls-1" d="M703.31,662.71c8.56,1.52,8.75,2.35,8.26,10.19-.62,9.78-.32,19.62-.54,29.43a61,61,0,0,1-.93,11.24c-.39,1.83-2.37,3.31-3.38,4.62-2.17-4.7-5.42-8.64-5.58-12.7-.44-11.5.32-23,.77-34.58C702,668.3,702.77,665.72,703.31,662.71Z"/><path class="cls-2" d="M324.13,811.69V692.3q0-70.21-51-70.22A58.7,58.7,0,0,0,248,627.45a60,60,0,0,0-19.93,14.87A69.71,69.71,0,0,0,215,664.88a81.85,81.85,0,0,0-4.76,28.23V811.69H184.3V604.48h25.9v36H211q23.07-40.87,69.41-40.88,34,0,51.8,22.06T350,685.42V811.69Z"/><path class="cls-2" d="M581.47,795.7q0,57.67-26.21,85.49T474.42,909a141.92,141.92,0,0,1-64.34-15.18v-26.3q33.78,18.81,64.34,18.82,81.15,0,81.15-85.8V775.67h-.81q-23.88,40.88-72.85,40.87a85.27,85.27,0,0,1-35.11-7.08A75.56,75.56,0,0,1,419.59,789Q408.25,775.67,402,756.55t-6.27-43.21q0-25.49,6.68-46.44t19-35.91a84.75,84.75,0,0,1,29.85-23.17q17.49-8.21,39.35-8.2,43.9,0,64.15,35.62h.81V604.48h25.9Zm-25.9-109.88a64.67,64.67,0,0,0-4.66-24.48A63.46,63.46,0,0,0,538,641.1a62.6,62.6,0,0,0-19.73-13.86A60.53,60.53,0,0,0,493,622.08a66.67,66.67,0,0,0-29.24,6.28,63.2,63.2,0,0,0-22.26,17.8,82.34,82.34,0,0,0-14.16,28q-5,16.5-5,37.13a118.29,118.29,0,0,0,4.66,34.4,77.72,77.72,0,0,0,13.15,26.1,58.73,58.73,0,0,0,20.54,16.6,60.37,60.37,0,0,0,26.81,5.86,68.1,68.1,0,0,0,27.92-5.56A63,63,0,0,0,537,773.34a69.42,69.42,0,0,0,13.76-23.07,82.51,82.51,0,0,0,4.86-28.63Z"/><path class="cls-2" d="M1128.86,811.69V689.87q0-18.61-2.83-31.46t-8.8-20.95a34.11,34.11,0,0,0-15.18-11.73q-9.21-3.65-22-3.65a45.07,45.07,0,0,0-21.45,5.37,56.61,56.61,0,0,0-17.71,14.77A71.87,71.87,0,0,0,1029,664.38a84.63,84.63,0,0,0-4.35,27.52V811.69h-25.9V687.24q0-65.15-50-65.16a45.77,45.77,0,0,0-21.45,5.16A53.55,53.55,0,0,0,910,641.71a69.21,69.21,0,0,0-11.53,22.36,94.69,94.69,0,0,0-4.15,28.84V811.69h-25.9V604.48h25.9v33.59h.81q21.86-38.45,63.74-38.45A63.25,63.25,0,0,1,979.53,603a60.08,60.08,0,0,1,17.4,9.31,61,61,0,0,1,13.26,14.27,64.32,64.32,0,0,1,8.39,18.21q10.93-22.05,28.43-33.59a70.3,70.3,0,0,1,39.56-11.54q68.19,0,68.2,84.18V811.69Z"/><path class="cls-2" d="M1334.41,811.69V774.86h-.81q-10.12,19.83-27.63,30.76t-39.55,10.92a80.64,80.64,0,0,1-27-4.25,57.84,57.84,0,0,1-20.44-12,53,53,0,0,1-13-18.71,62.12,62.12,0,0,1-4.55-24.08q0-28.12,17.4-44.82t52.61-21.76l62.94-9.1q0-59.7-46.34-59.7-36.22,0-67.18,26.51V620.26a86.25,86.25,0,0,1,14.67-8.39,133.85,133.85,0,0,1,17.3-6.48,142.13,142.13,0,0,1,18.72-4.25,120,120,0,0,1,18.71-1.52q34.61,0,52.31,19.43t17.71,57.87V811.69ZM1281,711.12a161.27,161.27,0,0,0-23.87,5.06,49,49,0,0,0-16.39,8.19,30.52,30.52,0,0,0-9.51,12.75q-3,7.59-3,18.72a39.9,39.9,0,0,0,2.93,15.38,34.56,34.56,0,0,0,8.5,12.24,38.49,38.49,0,0,0,13.56,8,54,54,0,0,0,18.11,2.84,59.77,59.77,0,0,0,45.23-19.84,67.65,67.65,0,0,0,13.15-22.25,81,81,0,0,0,4.76-28.13V703.63Z"/><path class="cls-2" d="M665.43,890.73a22,22,0,0,1-.94,6.68,19.66,19.66,0,0,1-2.49,5.21,17.27,17.27,0,0,1-3.6,3.82,21.41,21.41,0,0,1-4.3,2.58,22.67,22.67,0,0,1-4.54,1.47,22,22,0,0,1-4.35.47h-26a22,22,0,0,1-6.65-.94,18.93,18.93,0,0,1-5.18-2.53,17.18,17.18,0,0,1-3.82-3.63,20.63,20.63,0,0,1-2.58-4.29,22.87,22.87,0,0,1-1.47-4.54,21.87,21.87,0,0,1-.47-4.3v-19.5a20,20,0,0,1,2-9.4,19.14,19.14,0,0,1,11.61-9.72,23.23,23.23,0,0,1,6.54-1.05h26v14.4H619.33a6,6,0,0,0-4.37,1.47,5.75,5.75,0,0,0-1.5,4.3v19.39a6.06,6.06,0,0,0,1.47,4.43,5.74,5.74,0,0,0,4.29,1.5h26a5.81,5.81,0,0,0,4.38-1.5,6,6,0,0,0,1.44-4.32v-65h14.4Z"/><path class="cls-2" d="M699.82,838.76H685.41v-13h14.41Zm0,72.2H685.41v-59.9h14.41Z"/><path class="cls-2" d="M784.8,916.72a22,22,0,0,1-.95,6.68,19.2,19.2,0,0,1-2.49,5.21,16.82,16.82,0,0,1-3.6,3.82,21.41,21.41,0,0,1-4.3,2.58,22,22,0,0,1-4.54,1.46,21.28,21.28,0,0,1-4.35.48h-26V922.54h26A5.81,5.81,0,0,0,769,921a6,6,0,0,0,1.44-4.32V871.23a5.14,5.14,0,0,0-5.82-5.77h-26a5.54,5.54,0,0,0-4.21,1.64,5.78,5.78,0,0,0-1.55,4.13v19.5a5.82,5.82,0,0,0,1.5,4.32,5.89,5.89,0,0,0,4.37,1.5h25.88V911h-26a21.67,21.67,0,0,1-4.32-.47,22.82,22.82,0,0,1-4.51-1.47,21.41,21.41,0,0,1-4.3-2.58,16.82,16.82,0,0,1-3.6-3.82,19.06,19.06,0,0,1-2.49-5.21,22,22,0,0,1-1-6.68v-19.5a21.69,21.69,0,0,1,.47-4.33,23,23,0,0,1,1.47-4.51,21.41,21.41,0,0,1,2.58-4.3,17.27,17.27,0,0,1,3.82-3.6,19.91,19.91,0,0,1,5.18-2.49,21.71,21.71,0,0,1,6.65-.94h26a21.24,21.24,0,0,1,4.35.47,21.46,21.46,0,0,1,4.54,1.47,20.91,20.91,0,0,1,4.3,2.57,16.87,16.87,0,0,1,3.6,3.83,19,19,0,0,1,2.49,5.18,21.66,21.66,0,0,1,.95,6.65Z"/><path class="cls-2" d="M818.63,838.76H804.22v-13h14.41Zm0,72.2H804.22v-59.9h14.41Z"/><path class="cls-2" d="M892.91,865.46H867.75V911H853.18v-45.5H834.45v-14.4h18.73V831.5h14.57v19.56h25.16Z"/><path class="cls-2" d="M972.62,870.89a22.34,22.34,0,0,1-1,6.46,19.3,19.3,0,0,1-3.41,6.43,19.09,19.09,0,0,1-6.15,5,19.6,19.6,0,0,1-9.22,2h-26V877.05h26a5.78,5.78,0,0,0,4.54-1.81,6.45,6.45,0,0,0,1.61-4.46,5.63,5.63,0,0,0-1.8-4.43,6.35,6.35,0,0,0-4.35-1.61h-26a5.8,5.8,0,0,0-4.55,1.8,6.48,6.48,0,0,0-1.6,4.47v20.11a5.71,5.71,0,0,0,1.8,4.49,6.47,6.47,0,0,0,4.46,1.61h25.88V911h-26a22,22,0,0,1-6.46-1.06,19.27,19.27,0,0,1-6.43-3.4,19.06,19.06,0,0,1-4.95-6.15,19.64,19.64,0,0,1-2-9.23V870.89a22.33,22.33,0,0,1,1-6.45,19.3,19.3,0,0,1,3.41-6.43,19.09,19.09,0,0,1,6.15-5,19.64,19.64,0,0,1,9.23-2h26a22.33,22.33,0,0,1,6.45,1.05,19.3,19.3,0,0,1,6.43,3.41,19.09,19.09,0,0,1,5,6.15A19.6,19.6,0,0,1,972.62,870.89Z"/><path class="cls-2" d="M1046.35,911h-39.06a22.8,22.8,0,0,1-6.54-1.06,19.07,19.07,0,0,1-6.57-3.46,19.48,19.48,0,0,1-5-6.26,20.13,20.13,0,0,1-2-9.45v-19.5a21,21,0,0,1,.47-4.33,21.78,21.78,0,0,1,1.47-4.51,20.91,20.91,0,0,1,2.57-4.3,17.33,17.33,0,0,1,3.83-3.6,19.6,19.6,0,0,1,5.18-2.49,21.62,21.62,0,0,1,6.65-.94h39.06v14.4h-39.06a5.9,5.9,0,0,0-4.3,1.44,6,6,0,0,0-1.47,4.44v19.39a5.82,5.82,0,0,0,1.5,4.32,5.93,5.93,0,0,0,4.38,1.5h38.95Z"/><path class="cls-2" d="M1078.91,911H1064.5V825.73h14.41Zm52,0h-14.4V871.23a5.9,5.9,0,0,0-1.44-4.3,5.8,5.8,0,0,0-4.33-1.47h-26v-14.4h26a21,21,0,0,1,4.33.47,21.58,21.58,0,0,1,4.51,1.47,20.91,20.91,0,0,1,4.3,2.57,17.1,17.1,0,0,1,3.6,3.83,19.6,19.6,0,0,1,2.49,5.18,21.67,21.67,0,0,1,.94,6.65Z"/></svg>