<svg id="Layer_1" data-name="Layer 1" xmlns="http://www.w3.org/2000/svg" viewBox="0 0 1500 1500"><defs><style>.cls-1{fill:#283a83;}</style></defs><title>ngoma digitech icon</title><path class="cls-1" d="M827.43,167.56c23.25,4.28,46.77,7.46,69.71,13,215.9,52.23,380.4,170.94,454.1,385.14,134.8,391.8-144.91,697.77-440.31,761.54-278.67,60.16-558.78-63-689.51-303.71C83.4,769.39,161.18,454.43,403.31,284,501,215.2,608.05,176,728.09,173.6c16-.31,31.91-3.94,47.86-6ZM774.14,1291.23c61.6,5,127.52-7.57,192.05-29.9,252.94-87.55,399.75-324,364.52-575.5C1290.58,399.38,1054,236.38,817,219.44c-205.77-14.71-378.53,58.5-508,224.42-108.4,138.89-127.94,296.21-84,459.52C286.05,1130.75,521,1301.46,774.14,1291.23Z"/><path class="cls-1" d="M835.68,831.87C861.26,797,885.39,765.51,908,733c21.87-31.51,42.17-64.12,65.58-100L839.82,597.91c0,25.84-2,47.51.39,68.68,6,53.4-1.87,104.34-22.35,153.62C800.09,863,800,862.92,757.53,843.42c10.38-32.19,24.88-63.75,30-96.76,5.28-34.31,3.1-70.11,1.06-105.07C787,615.16,787,593.46,823,591.84L682,513.8c-7.38,37.82-16.56,73.46-20.71,109.68-3.53,30.82-2,62.32-1.25,93.49.43,17.69.85,31.38-23.12,33.16-26.32,2-23.85-15.21-24.94-31.18-4.72-69,.46-136.74,21.12-203.24,6.7-21.56,9.37-44.51,12.44-67,2.93-21.51,13.76-38.62,34.83-38.95,34.62-.53,70.88-.92,103.67,8.41,57.29,16.3,112.47,40,167.82,60.35-7.56,45-14.5,48.16-52.06,33.83Q828,485,754.88,461.31c-13.86-4.51-29.62-3.14-46.56-4.64,31,54.2,213.91,130.26,289.83,121.38-4.22-6.07-11-11.42-10.46-15.9,1.38-11.72,4.19-24.15,10.23-34,2-3.32,17.43-2.5,23.26,1.49A110,110,0,0,1,1049,557.82c22.69,33,11.91,60.73-26.73,71.43-9.86,2.73-19.85,5-36.23,9.06,30.45,11.31,23,26.29,12.58,42-36.39,54.52-70.87,110.45-109.85,163.05C872.58,865.2,857.22,838.73,835.68,831.87Z"/><path class="cls-1" d="M663.44,1056.2,628,1049.32c3.58,38,75.9,78.66,130.7,71.64,0-34.19.39-69.16-.11-104.12-.48-34.28-12.27-69.09,3.36-104,25.11,6.35,36.07,23.88,37.58,44,4.9,65.16,7.21,130.52,10.71,199.82-14.13-2.43-23.1-4.84-32.16-5.24-6.15-.27-16.73.58-18,3.79-10.32,26.59-30,16.83-48.06,13.87-41.27-6.75-73.78-28.49-102.31-58.13-17-17.62-35.83-33.4-55.58-51.62l-17.32,21.52c-25.06-14.49,57.34-191,114.15-245.49,34.12,17.5,36.21,27.84,15,57-24,33-46.94,66.85-69.63,100.8-19.29,28.88-17.7,32.27,22.07,47,21.93-35.94,42.93-74.08,68-109.28,8-11.18,26.89-14.55,45.54-23.85C737.76,975.25,691.34,1010.43,663.44,1056.2Z"/><path class="cls-1" d="M706.09,557.05c42.88,7.59,43.84,11.75,41.37,51-3.09,49-1.61,98.29-2.72,147.44-.42,18.83-.72,38-4.64,56.26-2,9.15-11.89,16.58-17,23.13-10.84-23.54-27.13-43.27-27.91-63.6-2.22-57.6,1.57-115.45,3.82-173.17C699.57,585.05,703.41,572.12,706.09,557.05Z"/></svg>